<svg xmlns="http://www.w3.org/2000/svg" viewBox="0 0 296.97 52.64"><g style="isolation:isolate"><path d="M2.84 26.28L20.72 16a5.68 5.68 0 015.68 0l17.87 10.28a5.68 5.68 0 012.84 4.92V16a5.68 5.68 0 00-2.84-4.92L26.39.76a5.68 5.68 0 00-5.68 0L2.84 11.08A5.68 5.68 0 000 16v15.2a5.68 5.68 0 012.84-4.92z" style="mix-blend-mode:multiply" fill="#ffcd52"/><path fill="#d54400" d="M2.78 41.52h.06l17.88-10.37a5.68 5.68 0 015.68 0l17.87 10.32h.06a5.67 5.67 0 002.78-4.87v-5.41a5.68 5.68 0 00-2.84-4.92L26.39 16a5.68 5.68 0 00-5.68 0L2.84 26.28A5.68 5.68 0 000 31.19v5.45a5.67 5.67 0 002.78 4.88z"/><path fill="#000051" d="M26.39 31.15a5.68 5.68 0 00-5.68 0L2.84 41.47h-.06.06l17.88 10.41a5.68 5.68 0 005.68 0l17.87-10.32h.06-.06zM61.5 11.4H72q4.75 0 7.39 2.24a7.26 7.26 0 012.61 5.8 6.85 6.85 0 01-1.32 4.2A6.16 6.16 0 0177.32 26a7.41 7.41 0 013.91 2.31A6.87 6.87 0 0182.77 33a7.44 7.44 0 01-2.46 5.76A9.75 9.75 0 0173.5 41h-12zm5.5 4.53v8h3.34a7.12 7.12 0 004.48-1.19 3.71 3.71 0 001.49-3 3.32 3.32 0 00-1.25-2.73 6 6 0 00-3.8-1zm0 20.57h4.75q5.32 0 5.32-4t-5.54-4.13H67zm31.91-17.76h5.32V41h-5.32v-3.62q-1.76 3.87-6.91 3.87a7 7 0 01-5.27-1.93 7.53 7.53 0 01-1.89-5.49V18.74h5.28v13.85a4.52 4.52 0 001 3.21A3.7 3.7 0 0094 36.9a4.43 4.43 0 003.58-1.54 7.1 7.1 0 001.3-4.66zm14.09 0v3.82q1.89-4.09 6.86-4.09a7 7 0 015.28 2 7.94 7.94 0 011.93 5.71V41h-5.27V27.31a4.68 4.68 0 00-1.05-3.31 3.74 3.74 0 00-2.86-1.12 4.44 4.44 0 00-3.47 1.6 6.75 6.75 0 00-1.42 4.59V41h-5.27V18.74zm32.5-6.79l5.28-1V41h-5.28v-3.45a7.42 7.42 0 01-6.77 3.78 8.33 8.33 0 01-7-3.34 12.87 12.87 0 01-2.57-8.09 12.3 12.3 0 012.7-8.37 8.77 8.77 0 016.92-3.1 7.43 7.43 0 016.68 3.74zM140 36.81a5 5 0 004-1.82 7.86 7.86 0 001.58-5.3 7 7 0 00-1.67-5.08 5.23 5.23 0 00-3.91-1.69 4.82 4.82 0 00-3.85 1.87A7.89 7.89 0 00134.6 30a7.55 7.55 0 001.54 4.92 4.74 4.74 0 003.86 1.89zM154.51 41V9.95l5.28-1V41zm26.03-5.78v4.58a12.81 12.81 0 01-6.73 1.45 10.73 10.73 0 01-11.47-11.34q0-5.32 2.9-8.35a9.62 9.62 0 017.25-3 9.15 9.15 0 016.9 2.64q2.55 2.64 2.55 7.69a21 21 0 01-.31 3.17h-14a6 6 0 002.4 3.69A7.75 7.75 0 00174.6 37a9.81 9.81 0 005.94-1.78zm-3.6-7.17v-.65a5.62 5.62 0 00-1.16-3.45 3.86 3.86 0 00-3.14-1.3 4.47 4.47 0 00-3.29 1.35 7 7 0 00-1.78 4zm24-16.21h4.49l3 10.52L212 35.12q1.1-6.12 2.73-12.8l2.67-10.92h5.6l-7.57 29.66H209l-2.68-9.37q-1.1-3.74-1.87-6.6l-1-3.83-.22-1q-.62 3.08-3.08 11.44l-2.77 9.37H191l-7.92-29.67h5.85l2.77 11q.7 2.95 1.41 6.12t1.06 4.84l.35 1.72q1.41-5.54 3.43-12.67zm22.88 12.94v-4.89q2.51-1.54 7.22-1.54 9.06 0 9.06 8.45v14.26h-5.24v-2.69q-1.54 2.86-5.81 2.86a6.85 6.85 0 01-5-1.85 6.28 6.28 0 01-1.87-4.66 5.9 5.9 0 012.38-5q2.38-1.8 6.86-1.8h3.26v-1.34a3.82 3.82 0 00-1-2.82 4.58 4.58 0 00-3.3-1 11.64 11.64 0 00-6.56 2.02zm10.82 6.69h-2.73a5.06 5.06 0 00-3.17.86 2.65 2.65 0 00-1.1 2.18q0 2.82 3.26 2.82a3.63 3.63 0 002.75-1 3.75 3.75 0 001-2.71zm15.24-8.76v11.35a2.57 2.57 0 002.82 2.86 5.5 5.5 0 003.08-.92v4.53a9.07 9.07 0 01-4 .75q-7.22 0-7.22-7.3V22.71h-3.34v-4h3.34v-5.33h5.28v5.37h5.54v4zM262.26 30a7.45 7.45 0 001.91 5.1 6.48 6.48 0 005 1.94 9.19 9.19 0 005.06-1.5v4.58a11.35 11.35 0 01-5.81 1.36A11.15 11.15 0 01260 38.2a11.27 11.27 0 01-3.16-8.2 11.72 11.72 0 013.16-8.26 11.24 11.24 0 018.6-3.34 11.56 11.56 0 015.54 1.23v4.66a9.1 9.1 0 00-5-1.41 6.64 6.64 0 00-5 1.94 7.2 7.2 0 00-1.88 5.18zm20.63-20.05v12.58q1.8-4 6.82-4a7 7 0 015.26 2 8.12 8.12 0 012 5.92v14.61h-5.28V27.37a4.74 4.74 0 00-1.08-3.3 3.6 3.6 0 00-2.79-1.19 4.81 4.81 0 00-3.41 1.45q-1.52 1.45-1.52 4.75v12h-5.28V9.95z"/></g></svg>