<?xml version="1.0" encoding="UTF-8"?>
<svg width="251px" height="53px" viewBox="0 0 251 53" version="1.1" xmlns="http://www.w3.org/2000/svg" xmlns:xlink="http://www.w3.org/1999/xlink">
    <!-- Generator: Sketch 49.3 (51167) - http://www.bohemiancoding.com/sketch -->
    <title>Page 1</title>
    <desc>Created with Sketch.</desc>
    <defs>
        <polygon id="path-1" points="0 0.36 47.1095 0.36 47.1095 31.5554 0 31.5554"></polygon>
        <polygon id="path-3" points="0 53.6399 250.224 53.6399 250.224 0.9999 0 0.9999"></polygon>
    </defs>
    <g id="Page-1" stroke="none" stroke-width="1" fill="none" fill-rule="evenodd">
        <g id="Desktop-HD-Copy" transform="translate(-594.000000, -75.000000)">
            <g id="Page-1" transform="translate(594.000000, 74.000000)">
                <g id="Group-3" transform="translate(0.000000, 0.639900)">
                    <mask id="mask-2" fill="white">
                        <use xlink:href="#path-1"></use>
                    </mask>
                    <g id="Clip-2"></g>
                    <path d="M2.8385,26.6384 L20.7155,16.3174 C22.4725,15.3024 24.6365,15.3024 26.3935,16.3174 L44.2705,26.6384 C46.0265,27.6524 47.1095,29.5274 47.1095,31.5554 L47.1095,16.3594 C47.1095,14.3304 46.0265,12.4554 44.2705,11.4424 L26.3935,1.1204 C24.6365,0.1064 22.4725,0.1064 20.7155,1.1204 L2.8385,11.4424 C1.0815,12.4554 -0.0005,14.3304 -0.0005,16.3594 L-0.0005,31.5554 C-0.0005,29.5274 1.0815,27.6524 2.8385,26.6384" id="Fill-1" fill="#FFCD52" mask="url(#mask-2)"></path>
                </g>
                <path d="M2.776,42.5166 C2.797,42.5036 2.817,42.4876 2.838,42.4746 L20.715,32.1536 C22.472,31.1386 24.636,31.1386 26.393,32.1536 L44.27,42.4746 C44.292,42.4876 44.31,42.5036 44.333,42.5166 C46.05,41.4946 47.109,39.6446 47.109,37.6416 L47.109,32.1956 C47.109,30.1666 46.027,28.2916 44.27,27.2786 L26.393,16.9566 C24.636,15.9426 22.472,15.9426 20.715,16.9566 L2.838,27.2786 C1.082,28.2916 0,30.1666 0,32.1956 L0,37.6416 C0,39.6446 1.058,41.4946 2.776,42.5166" id="Fill-4" fill="#D54400"></path>
                <path d="M26.3932,32.1533 C24.6362,31.1383 22.4722,31.1383 20.7152,32.1533 L2.8382,42.4743 C2.8172,42.4873 2.7972,42.5043 2.7762,42.5163 C2.7972,42.5293 2.8172,42.5453 2.8382,42.5573 L20.7152,52.8793 C22.4722,53.8933 24.6362,53.8933 26.3932,52.8793 L44.2702,42.5573 C44.2912,42.5453 44.3102,42.5293 44.3322,42.5163 C44.3102,42.5043 44.2912,42.4873 44.2702,42.4743 L26.3932,32.1533 Z" id="Fill-6" fill="#000051"></path>
                <path d="M66.0358,38.5 L70.7828,38.5 C74.3288,38.5 76.1018,37.152 76.1018,34.455 C76.1018,31.701 74.2558,30.323 70.5638,30.323 L66.0358,30.323 L66.0358,38.5 Z M66.0358,17.927 L66.0358,25.883 L69.3768,25.883 C71.3698,25.883 72.8628,25.487 73.8608,24.696 C74.8568,23.905 75.3548,22.895 75.3548,21.663 C75.3548,20.521 74.9378,19.612 74.1018,18.938 C73.2668,18.264 71.9988,17.927 70.2998,17.927 L66.0358,17.927 Z M60.4968,13.399 L71.0028,13.399 C74.1678,13.399 76.6298,14.146 78.3888,15.641 C80.1468,17.136 81.0258,19.069 81.0258,21.443 C81.0258,23.056 80.5868,24.455 79.7068,25.642 C78.8278,26.829 77.6998,27.613 76.3218,27.993 C77.9048,28.375 79.2088,29.144 80.2348,30.302 C81.2608,31.459 81.7728,33.034 81.7728,35.027 C81.7728,37.372 80.9528,39.291 79.3108,40.785 C77.6698,42.28 75.3988,43.027 72.4978,43.027 L60.4968,43.027 L60.4968,13.399 Z" id="Fill-8" fill="#000051"></path>
                <path d="M97.9059,20.7402 L103.2249,20.7402 L103.2249,43.0272 L97.9059,43.0272 L97.9059,39.3792 C96.7329,41.9582 94.4479,43.2482 91.0489,43.2482 C88.7919,43.2482 87.0329,42.6032 85.7729,41.3132 C84.5129,40.0242 83.8829,38.1922 83.8829,35.8182 L83.8829,20.7402 L89.1579,20.7402 L89.1579,34.5872 C89.1579,35.9942 89.5029,37.0642 90.1909,37.7972 C90.8799,38.5292 91.8249,38.8952 93.0269,38.8952 C94.5499,38.8952 95.7449,38.3832 96.6089,37.3572 C97.4739,36.3312 97.9059,34.7782 97.9059,32.6972 L97.9059,20.7402 Z" id="Fill-10" fill="#000051"></path>
                <path d="M112.0163,20.7402 L112.0163,24.5642 C113.2763,21.8392 115.5623,20.4762 118.8743,20.4762 C121.1003,20.4762 122.8603,21.1502 124.1503,22.4992 C125.4383,23.8462 126.0833,25.7522 126.0833,28.2132 L126.0833,43.0272 L120.8093,43.0272 L120.8093,29.3122 C120.8093,27.8472 120.4563,26.7412 119.7533,25.9932 C119.0493,25.2462 118.0973,24.8722 116.8963,24.8722 C115.5183,24.8722 114.3613,25.4072 113.4233,26.4762 C112.4853,27.5472 112.0163,29.0782 112.0163,31.0712 L112.0163,43.0272 L106.7423,43.0272 L106.7423,20.7402 L112.0163,20.7402 Z" id="Fill-12" fill="#000051"></path>
                <path d="M138.9645,38.8076 C140.5465,38.8076 141.8655,38.1996 142.9205,36.9836 C143.9755,35.7676 144.5035,34.0006 144.5035,31.6856 C144.5035,29.4296 143.9455,27.7376 142.8325,26.6086 C141.7185,25.4806 140.4435,24.9156 139.0085,24.9156 C137.4845,24.9156 136.2005,25.5386 135.1615,26.7856 C134.1205,28.0306 133.6015,29.7666 133.6015,31.9946 C133.6015,34.0156 134.1125,35.6576 135.1395,36.9166 C136.1645,38.1776 137.4405,38.8076 138.9645,38.8076 Z M144.5035,13.9466 L149.7785,12.9476 L149.7785,43.0276 L144.5035,43.0276 L144.5035,39.5546 C142.9795,42.0766 140.7225,43.3356 137.7335,43.3356 C134.8025,43.3356 132.4805,42.2216 130.7655,39.9946 C129.0515,37.7676 128.1935,35.0716 128.1935,31.9066 C128.1935,28.3896 129.0955,25.5976 130.8975,23.5316 C132.6995,21.4656 135.0085,20.4316 137.8205,20.4316 C140.7225,20.4316 142.9485,21.6786 144.5035,24.1686 L144.5035,13.9466 Z" id="Fill-14" fill="#000051"></path>
                <polygon id="Fill-16" fill="#000051" points="153.5143 43.0274 153.5143 11.9484 158.7893 10.9494 158.7893 43.0274"></polygon>
                <path d="M175.9332,30.0596 L175.9332,29.4006 C175.8732,27.9646 175.4862,26.8146 174.7682,25.9496 C174.0492,25.0846 173.0022,24.6526 171.6242,24.6526 C170.3652,24.6526 169.2742,25.1146 168.3502,26.0376 C167.4262,26.9596 166.8332,28.3006 166.5702,30.0596 L175.9332,30.0596 Z M179.5372,37.2246 L179.5372,41.7966 C177.9842,42.7636 175.7422,43.2476 172.8122,43.2476 C169.2662,43.2476 166.4662,42.1926 164.4152,40.0816 C162.3642,37.9726 161.3382,35.2466 161.3382,31.9066 C161.3382,28.3606 162.3052,25.5766 164.2402,23.5536 C166.1732,21.5316 168.5912,20.5206 171.4932,20.5206 C174.3952,20.5206 176.6952,21.3996 178.3952,23.1576 C180.0942,24.9156 180.9452,27.4806 180.9452,30.8506 C180.9452,31.6716 180.8422,32.7266 180.6372,34.0156 L166.6582,34.0156 C167.0382,35.6276 167.8372,36.8596 169.0532,37.7076 C170.2702,38.5596 171.7862,38.9836 173.6032,38.9836 C175.9482,38.9836 177.9252,38.3976 179.5372,37.2246 Z" id="Fill-18" fill="#000051"></path>
                <path d="M200.2877,14.6299 L200.2877,19.9919 C198.0897,18.6739 195.7447,18.0149 193.2537,18.0149 C191.8757,18.0149 190.7987,18.3219 190.0217,18.9379 C189.2457,19.5529 188.8567,20.3449 188.8567,21.3119 C188.8567,22.2779 189.2747,23.0779 190.1097,23.7069 C190.9457,24.3379 192.1987,25.0339 193.8697,25.7949 C195.0407,26.3219 195.9937,26.7849 196.7257,27.1809 C197.4587,27.5759 198.2577,28.1249 199.1227,28.8289 C199.9867,29.5319 200.6317,30.3749 201.0567,31.3569 C201.4797,32.3389 201.6937,33.4599 201.6937,34.7199 C201.6937,37.3579 200.7487,39.4599 198.8587,41.0269 C196.9687,42.5959 194.4847,43.3799 191.4077,43.3799 C188.0657,43.3799 185.2977,42.7499 183.0997,41.4889 L183.0997,35.8179 C185.6187,37.6359 188.3747,38.5439 191.3637,38.5439 C192.7117,38.5439 193.7957,38.2139 194.6167,37.5549 C195.4357,36.8959 195.8477,36.0089 195.8477,34.8949 C195.8477,34.3669 195.7447,33.8999 195.5397,33.4879 C195.3337,33.0779 194.9167,32.6689 194.2867,32.2579 C193.6567,31.8479 193.1727,31.5549 192.8367,31.3779 C192.4987,31.2019 191.8037,30.8809 190.7477,30.4109 C190.4547,30.2649 190.2347,30.1619 190.0887,30.1039 C189.0037,29.6059 188.1247,29.1579 187.4517,28.7629 C186.7757,28.3669 186.0447,27.8329 185.2537,27.1579 C184.4617,26.4839 183.8687,25.6789 183.4727,24.7399 C183.0767,23.8029 182.8797,22.7339 182.8797,21.5309 C182.8797,19.0109 183.8087,16.9889 185.6707,15.4649 C187.5307,13.9419 190.0007,13.1789 193.0777,13.1789 C195.8617,13.1789 198.2647,13.6619 200.2877,14.6299" id="Fill-20" fill="#000051"></path>
                <mask id="mask-4" fill="white">
                    <use xlink:href="#path-3"></use>
                </mask>
                <g id="Clip-23"></g>
                <path d="M204.376,43.0269 L209.651,43.0269 L209.651,20.7399 L204.376,20.7399 L204.376,43.0269 Z M203.847,14.0579 C203.847,13.1789 204.156,12.4319 204.77,11.8169 C205.386,11.2009 206.133,10.8929 207.012,10.8929 C207.891,10.8929 208.639,11.2009 209.255,11.8169 C209.871,12.4319 210.177,13.1789 210.177,14.0579 C210.177,14.9669 209.871,15.7289 209.255,16.3439 C208.639,16.9599 207.891,17.2669 207.012,17.2669 C206.133,17.2669 205.386,16.9599 204.77,16.3439 C204.156,15.7289 203.847,14.9669 203.847,14.0579 Z" id="Fill-22" fill="#000051" mask="url(#mask-4)"></path>
                <polygon id="Fill-24" fill="#000051" mask="url(#mask-4)" points="228.7721 20.7402 228.7721 24.4322 218.3981 38.7632 229.3431 38.7632 229.3431 43.0272 212.3751 43.0272 212.3751 39.1152 222.7071 24.9602 212.7711 24.9602 212.7711 20.7402"></polygon>
                <path d="M245.2135,30.0596 L245.2135,29.4006 C245.1535,27.9646 244.7655,26.8146 244.0485,25.9496 C243.3285,25.0846 242.2815,24.6526 240.9045,24.6526 C239.6445,24.6526 238.5535,25.1146 237.6305,26.0376 C236.7065,26.9596 236.1125,28.3006 235.8495,30.0596 L245.2135,30.0596 Z M248.8175,37.2246 L248.8175,41.7966 C247.2645,42.7636 245.0225,43.2476 242.0925,43.2476 C238.5455,43.2476 235.7465,42.1926 233.6945,40.0816 C231.6435,37.9726 230.6175,35.2466 230.6175,31.9066 C230.6175,28.3606 231.5845,25.5766 233.5205,23.5536 C235.4535,21.5316 237.8715,20.5206 240.7735,20.5206 C243.6745,20.5206 245.9745,21.3996 247.6745,23.1576 C249.3745,24.9156 250.2245,27.4806 250.2245,30.8506 C250.2245,31.6716 250.1215,32.7266 249.9165,34.0156 L235.9375,34.0156 C236.3175,35.6276 237.1165,36.8596 238.3325,37.7076 C239.5495,38.5596 241.0665,38.9836 242.8835,38.9836 C245.2285,38.9836 247.2055,38.3976 248.8175,37.2246 Z" id="Fill-25" fill="#000051" mask="url(#mask-4)"></path>
            </g>
        </g>
    </g>
</svg>